<?xml version="1.0" standalone="no"?>
<!DOCTYPE svg PUBLIC "-//W3C//DTD SVG 20010904//EN"
 "http://www.w3.org/TR/2001/REC-SVG-20010904/DTD/svg10.dtd">
<svg version="1.0" xmlns="http://www.w3.org/2000/svg"
 width="700.000000pt" height="700.000000pt" viewBox="0 0 700.000000 700.000000"
 preserveAspectRatio="xMidYMid meet">
<metadata>
Created by potrace 1.11, written by Peter Selinger 2001-2013
</metadata>
<g transform="translate(0.000000,700.000000) scale(0.100000,-0.100000)"
fill="#000000" stroke="none">
<path d="M6770 6878 c-268 -138 -549 -283 -770 -396 -124 -63 -229 -119 -234
-123 -6 -5 10 -26 39 -51 27 -24 67 -59 88 -79 l40 -35 -114 -90 c-521 -412
-1161 -810 -1904 -1182 -230 -116 -364 -177 -700 -322 -94 -41 -281 -112 -402
-154 -196 -67 -213 -78 -233 -148 -12 -43 3 -92 40 -126 41 -38 258 -128 353
-146 12 -2 51 -11 87 -19 57 -13 184 -35 305 -52 22 -3 51 -8 65 -10 14 -3 45
-7 70 -10 25 -3 56 -7 70 -10 13 -3 42 -7 65 -10 134 -19 195 -31 305 -56 106
-24 101 -23 184 -49 l69 -22 -159 -82 c-87 -46 -211 -114 -274 -151 -63 -37
-131 -77 -150 -87 -19 -11 -111 -66 -205 -123 -153 -92 -241 -144 -345 -203
-19 -11 -75 -43 -125 -72 -205 -119 -528 -272 -721 -340 -82 -29 -241 -73
-305 -84 -108 -18 -162 -124 -106 -207 27 -40 98 -78 222 -118 91 -29 242 -64
325 -75 25 -3 59 -8 75 -11 17 -2 46 -7 65 -9 112 -15 201 -26 245 -31 210
-23 450 -55 609 -82 84 -14 260 -59 284 -72 22 -12 -281 -203 -628 -395 -185
-103 -538 -272 -725 -346 -44 -18 -91 -37 -105 -43 -14 -5 -29 -11 -35 -13 -5
-1 -41 -16 -80 -32 -140 -60 -925 -328 -1007 -344 -9 -2 -29 13 -46 35 -85
107 -209 166 -345 165 -329 -4 -527 -348 -370 -643 67 -126 221 -216 370 -217
73 0 175 24 204 49 8 7 19 13 23 13 16 0 78 55 116 102 37 47 85 156 92 207 2
16 12 27 28 32 332 100 964 321 1145 399 22 10 69 29 105 43 36 14 92 38 125
52 33 15 76 34 95 42 388 170 835 422 1270 716 156 105 156 106 174 149 25 62
-1 132 -63 166 -20 11 -52 29 -71 39 -134 75 -466 161 -740 193 -110 13 -158
19 -195 25 -16 2 -55 7 -85 10 -30 3 -71 7 -90 10 -19 3 -57 7 -85 10 -103 11
-264 34 -315 45 -3 0 24 12 60 26 227 91 455 209 862 447 106 62 204 120 218
128 14 8 27 16 30 19 3 3 16 11 30 19 14 8 86 50 160 94 411 241 553 312 760
384 41 14 85 32 97 40 66 44 76 141 19 199 -56 56 -253 143 -496 219 -98 30
-386 85 -570 109 -230 30 -451 69 -443 77 5 4 54 25 110 48 56 22 121 49 145
59 198 87 296 132 378 169 109 51 555 274 615 308 22 12 65 36 95 52 461 249
1049 622 1365 866 28 21 64 49 80 62 17 12 66 51 109 86 123 100 128 103 134
93 4 -5 36 -34 72 -64 36 -30 74 -63 84 -73 11 -9 23 -14 27 -10 3 5 29 51 56
103 28 52 62 115 75 140 14 25 43 79 65 120 22 41 118 218 213 393 94 175 170
320 168 322 -1 1 -64 -28 -138 -67z"/>
<path d="M5633 6873 c-27 -32 -58 -70 -69 -84 -37 -49 -146 -139 -202 -166
-77 -37 -158 -40 -254 -7 -39 13 -79 24 -87 24 -9 0 -52 -30 -96 -65 -201
-164 -320 -191 -466 -107 -39 23 -84 42 -99 42 -39 0 -138 -109 -210 -230
-102 -172 -177 -233 -355 -292 -89 -29 -144 -33 -210 -13 -206 59 -291 68
-361 36 -66 -30 -97 -72 -129 -174 -86 -278 -206 -474 -320 -522 -54 -23 -172
4 -309 71 -152 74 -144 181 17 264 56 28 77 56 77 100 0 54 -24 100 -53 101
-24 0 -85 7 -129 13 -77 11 -127 78 -129 172 -2 70 -20 115 -55 143 -33 26
-46 19 -106 -51 -75 -88 -140 -186 -218 -328 -43 -77 -93 -153 -118 -178 l-43
-43 -105 5 c-99 4 -105 3 -119 -17 -13 -22 -13 -33 11 -130 4 -15 26 -44 51
-65 137 -114 148 -134 145 -276 l-2 -109 45 -43 c51 -47 54 -60 24 -98 -30
-39 -74 -59 -112 -51 -29 6 -45 15 -129 69 l-26 17 -49 -82 c-58 -99 -145
-189 -216 -223 -133 -64 -255 -39 -471 98 -94 58 -120 67 -130 40 -13 -34 -4
-72 33 -141 22 -39 37 -73 35 -76 -11 -11 -34 -115 -35 -159 -2 -48 15 -83 33
-72 18 11 146 6 185 -7 81 -26 133 -76 133 -127 0 -68 -57 -142 -180 -236 -77
-59 -99 -90 -100 -139 0 -36 37 -73 123 -121 73 -40 115 -79 124 -113 3 -14
-2 -50 -11 -81 -17 -55 -17 -59 2 -102 104 -243 80 -558 -54 -696 -90 -93
-168 -124 -334 -133 l-115 -6 -3 -39 c-8 -90 111 -284 282 -464 69 -72 69 -72
122 -72 63 0 143 -32 197 -79 71 -63 153 -210 173 -313 11 -53 11 -150 2 -186
-5 -19 -7 -36 -4 -39 9 -10 460 146 740 256 l29 12 -69 72 c-85 89 -110 119
-154 182 -19 27 -42 58 -51 68 -9 10 -40 61 -70 115 -29 53 -77 121 -106 151
-49 51 -108 151 -117 196 -3 11 -9 38 -14 61 -5 22 -7 72 -4 110 3 38 5 98 5
134 -1 36 -2 166 -4 290 -2 231 0 266 27 430 33 197 142 470 259 650 273 418
728 736 1240 865 72 18 166 50 210 70 44 20 121 55 170 78 50 23 207 100 350
172 l260 132 -2 34 c-8 101 -5 219 5 255 9 30 31 61 78 107 130 127 247 161
388 110 156 -57 144 -56 232 -11 73 37 84 39 144 35 l65 -4 110 70 c195 124
409 273 580 402 106 81 114 90 134 143 27 73 39 132 47 223 15 164 10 209 -20
209 -8 0 -36 -26 -63 -57z"/>
<path d="M6310 5638 c-36 -27 -88 -71 -116 -96 -79 -74 -80 -75 -102 -63 -17
9 -33 0 -106 -55 l-85 -66 6 -45 c5 -40 3 -47 -24 -74 -29 -27 -36 -48 -50
-134 -6 -41 -11 -44 -89 -61 -109 -22 -133 -19 -175 22 l-38 37 -118 -75
c-248 -159 -591 -361 -748 -441 -94 -48 -94 -48 -33 -94 234 -179 448 -478
557 -780 60 -166 108 -369 126 -533 4 -30 9 -68 11 -85 7 -42 7 -309 0 -375
-60 -542 -366 -1024 -856 -1346 -238 -156 -528 -272 -800 -319 -144 -25 -170
-27 -340 -30 l-165 -2 -195 -95 c-253 -123 -443 -207 -668 -294 -73 -28 -74
-29 -67 -59 4 -16 9 -59 11 -94 7 -92 25 -131 62 -131 51 0 134 31 284 106
208 104 217 105 366 17 41 -24 76 -43 78 -43 3 0 17 -9 32 -19 41 -30 147 -62
207 -62 87 -1 117 22 170 135 59 123 130 181 266 216 76 20 122 12 233 -40
107 -51 177 -109 231 -191 68 -104 84 -120 111 -113 21 6 116 -19 139 -36 14
-11 74 -29 116 -35 44 -7 55 4 64 64 21 145 100 327 183 421 111 127 239 196
497 265 129 35 146 45 141 88 -3 17 -8 54 -11 80 -4 27 -9 59 -11 70 -18 85
-19 108 -2 197 21 116 27 129 85 197 63 74 68 76 189 87 60 5 120 33 174 82
37 33 53 66 64 124 13 76 70 145 179 217 39 26 111 83 161 127 98 85 183 145
284 195 35 18 66 39 69 48 14 37 6 120 -14 149 -30 41 -51 112 -77 255 -29
161 -44 168 -76 37 -61 -249 -127 -360 -250 -417 -46 -21 -73 -26 -168 -29
-108 -4 -114 -3 -153 22 -93 62 -162 145 -176 213 -3 15 -6 55 -5 88 0 64 -10
95 -32 95 -24 0 -49 70 -50 143 -1 58 2 71 19 83 11 8 28 13 37 11 15 -4 16 1
12 34 -11 74 21 126 88 142 22 6 28 15 33 45 16 93 47 183 80 233 34 50 36 58
33 116 -2 35 -8 67 -13 72 -6 5 -32 11 -58 14 -53 5 -72 22 -83 76 -9 48 3 62
82 94 37 15 72 33 76 40 25 40 -2 95 -106 211 -33 36 -69 81 -81 99 -59 86
-64 189 -14 295 53 110 114 158 251 196 129 35 136 41 141 124 2 31 -1 35 -36
47 -94 32 -99 72 -21 150 65 64 128 99 215 119 33 8 62 16 64 18 2 2 5 28 8
58 3 30 17 80 31 110 20 42 26 71 26 122 0 37 -4 69 -8 72 -4 2 -37 -18 -72
-46z"/>
<path d="M6547 3782 c-33 -20 -117 -187 -117 -233 0 -39 42 -129 73 -157 l25
-24 15 24 c9 12 23 68 32 123 18 109 31 163 47 204 16 37 16 44 0 64 -19 21
-39 21 -75 -1z"/>
</g>
</svg>
